<mxfile host="app.diagrams.net" modified="2020-10-21T10:32:06.237Z" agent="5.0 (Windows NT 10.0; Win64; x64) AppleWebKit/537.36 (KHTML, like Gecko) Chrome/85.0.4183.121 Safari/537.36 OPR/71.0.3770.271" etag="YnWiIgHGSzq7txsxUgXU" version="13.8.1" type="github">
  <diagram id="prtHgNgQTEPvFCAcTncT" name="Page-1">
    <mxGraphModel dx="998" dy="580" grid="1" gridSize="10" guides="1" tooltips="1" connect="1" arrows="1" fold="1" page="1" pageScale="1" pageWidth="827" pageHeight="1169" math="0" shadow="0">
      <root>
        <mxCell id="0" />
        <mxCell id="1" parent="0" />
        <mxCell id="3OrEgeAZociBf4MSiKX0-1" value="&lt;p style=&quot;margin: 0px ; margin-top: 4px ; margin-left: 5px ; text-align: left&quot;&gt;&lt;b&gt;cld System Płatności&lt;/b&gt;&lt;/p&gt;" style="html=1;shape=mxgraph.sysml.package;overflow=fill;labelX=154;align=left;spacingLeft=5;verticalAlign=top;spacingTop=-3;" vertex="1" parent="1">
          <mxGeometry width="900" height="560" as="geometry" />
        </mxCell>
        <mxCell id="3OrEgeAZociBf4MSiKX0-14" value="" style="endArrow=none;html=1;exitX=1;exitY=0.5;exitDx=0;exitDy=0;entryX=0;entryY=0.5;entryDx=0;entryDy=0;" edge="1" parent="1" source="3OrEgeAZociBf4MSiKX0-3" target="3OrEgeAZociBf4MSiKX0-7">
          <mxGeometry width="50" height="50" relative="1" as="geometry">
            <mxPoint x="390" y="320" as="sourcePoint" />
            <mxPoint x="440" y="270" as="targetPoint" />
          </mxGeometry>
        </mxCell>
        <mxCell id="3OrEgeAZociBf4MSiKX0-54" value="klient" style="edgeLabel;html=1;align=center;verticalAlign=middle;resizable=0;points=[];" vertex="1" connectable="0" parent="3OrEgeAZociBf4MSiKX0-14">
          <mxGeometry x="-0.7602" y="-1" relative="1" as="geometry">
            <mxPoint x="8.99" y="11.12" as="offset" />
          </mxGeometry>
        </mxCell>
        <mxCell id="3OrEgeAZociBf4MSiKX0-55" value="podstawa&lt;br&gt;płatności" style="edgeLabel;html=1;align=center;verticalAlign=middle;resizable=0;points=[];" vertex="1" connectable="0" parent="3OrEgeAZociBf4MSiKX0-14">
          <mxGeometry x="0.2399" relative="1" as="geometry">
            <mxPoint x="64" y="72.62" as="offset" />
          </mxGeometry>
        </mxCell>
        <mxCell id="3OrEgeAZociBf4MSiKX0-56" value="1" style="edgeLabel;html=1;align=center;verticalAlign=middle;resizable=0;points=[];" vertex="1" connectable="0" parent="3OrEgeAZociBf4MSiKX0-14">
          <mxGeometry x="0.3072" y="2" relative="1" as="geometry">
            <mxPoint x="-48.97" y="-5.34" as="offset" />
          </mxGeometry>
        </mxCell>
        <mxCell id="3OrEgeAZociBf4MSiKX0-57" value="1..*" style="edgeLabel;html=1;align=center;verticalAlign=middle;resizable=0;points=[];" vertex="1" connectable="0" parent="3OrEgeAZociBf4MSiKX0-14">
          <mxGeometry x="0.2847" y="1" relative="1" as="geometry">
            <mxPoint x="12.010000000000002" y="-6.36" as="offset" />
          </mxGeometry>
        </mxCell>
        <mxCell id="3OrEgeAZociBf4MSiKX0-10" value="Płatność" style="swimlane;fontStyle=1;align=center;verticalAlign=top;childLayout=stackLayout;horizontal=1;startSize=26;horizontalStack=0;resizeParent=1;resizeParentMax=0;resizeLast=0;collapsible=1;marginBottom=0;" vertex="1" parent="1">
          <mxGeometry x="280" y="180" width="170" height="78" as="geometry" />
        </mxCell>
        <mxCell id="3OrEgeAZociBf4MSiKX0-11" value="suma:" style="text;strokeColor=none;fillColor=none;align=left;verticalAlign=top;spacingLeft=4;spacingRight=4;overflow=hidden;rotatable=0;points=[[0,0.5],[1,0.5]];portConstraint=eastwest;" vertex="1" parent="3OrEgeAZociBf4MSiKX0-10">
          <mxGeometry y="26" width="170" height="14" as="geometry" />
        </mxCell>
        <mxCell id="3OrEgeAZociBf4MSiKX0-12" value="" style="line;strokeWidth=1;fillColor=none;align=left;verticalAlign=middle;spacingTop=-1;spacingLeft=3;spacingRight=3;rotatable=0;labelPosition=right;points=[];portConstraint=eastwest;" vertex="1" parent="3OrEgeAZociBf4MSiKX0-10">
          <mxGeometry y="40" width="170" height="38" as="geometry" />
        </mxCell>
        <mxCell id="3OrEgeAZociBf4MSiKX0-15" value="" style="endArrow=classic;html=1;exitX=0.528;exitY=0.825;exitDx=0;exitDy=0;exitPerimeter=0;entryX=0.5;entryY=0;entryDx=0;entryDy=0;" edge="1" parent="1" source="3OrEgeAZociBf4MSiKX0-8" target="3OrEgeAZociBf4MSiKX0-10">
          <mxGeometry width="50" height="50" relative="1" as="geometry">
            <mxPoint x="390" y="320" as="sourcePoint" />
            <mxPoint x="365" y="170" as="targetPoint" />
            <Array as="points">
              <mxPoint x="365" y="150" />
            </Array>
          </mxGeometry>
        </mxCell>
        <mxCell id="3OrEgeAZociBf4MSiKX0-28" value="Należność" style="swimlane;fontStyle=1;align=center;verticalAlign=top;childLayout=stackLayout;horizontal=1;startSize=26;horizontalStack=0;resizeParent=1;resizeParentMax=0;resizeLast=0;collapsible=1;marginBottom=0;" vertex="1" parent="1">
          <mxGeometry x="610" y="50" width="160" height="90" as="geometry" />
        </mxCell>
        <mxCell id="3OrEgeAZociBf4MSiKX0-29" value="terminPłatności:" style="text;strokeColor=none;fillColor=none;align=left;verticalAlign=top;spacingLeft=4;spacingRight=4;overflow=hidden;rotatable=0;points=[[0,0.5],[1,0.5]];portConstraint=eastwest;" vertex="1" parent="3OrEgeAZociBf4MSiKX0-28">
          <mxGeometry y="26" width="160" height="26" as="geometry" />
        </mxCell>
        <mxCell id="3OrEgeAZociBf4MSiKX0-30" value="" style="line;strokeWidth=1;fillColor=none;align=left;verticalAlign=middle;spacingTop=-1;spacingLeft=3;spacingRight=3;rotatable=0;labelPosition=right;points=[];portConstraint=eastwest;" vertex="1" parent="3OrEgeAZociBf4MSiKX0-28">
          <mxGeometry y="52" width="160" height="38" as="geometry" />
        </mxCell>
        <mxCell id="3OrEgeAZociBf4MSiKX0-32" value="Wpływ" style="swimlane;fontStyle=1;align=center;verticalAlign=top;childLayout=stackLayout;horizontal=1;startSize=26;horizontalStack=0;resizeParent=1;resizeParentMax=0;resizeLast=0;collapsible=1;marginBottom=0;" vertex="1" parent="1">
          <mxGeometry x="610" y="180" width="160" height="100" as="geometry" />
        </mxCell>
        <mxCell id="3OrEgeAZociBf4MSiKX0-34" value="" style="line;strokeWidth=1;fillColor=none;align=left;verticalAlign=middle;spacingTop=-1;spacingLeft=3;spacingRight=3;rotatable=0;labelPosition=right;points=[];portConstraint=eastwest;" vertex="1" parent="3OrEgeAZociBf4MSiKX0-32">
          <mxGeometry y="26" width="160" height="44" as="geometry" />
        </mxCell>
        <mxCell id="3OrEgeAZociBf4MSiKX0-35" value="zaksięguj0" style="text;strokeColor=none;fillColor=none;align=left;verticalAlign=top;spacingLeft=4;spacingRight=4;overflow=hidden;rotatable=0;points=[[0,0.5],[1,0.5]];portConstraint=eastwest;" vertex="1" parent="3OrEgeAZociBf4MSiKX0-32">
          <mxGeometry y="70" width="160" height="30" as="geometry" />
        </mxCell>
        <mxCell id="3OrEgeAZociBf4MSiKX0-2" value="Hurtownia" style="swimlane;fontStyle=1;align=center;verticalAlign=top;childLayout=stackLayout;horizontal=1;startSize=26;horizontalStack=0;resizeParent=1;resizeParentMax=0;resizeLast=0;collapsible=1;marginBottom=0;" vertex="1" parent="1">
          <mxGeometry x="20" y="50" width="170" height="100" as="geometry" />
        </mxCell>
        <mxCell id="3OrEgeAZociBf4MSiKX0-3" value="nazwa:&#xa;adres:&#xa;" style="text;strokeColor=none;fillColor=none;align=left;verticalAlign=top;spacingLeft=4;spacingRight=4;overflow=hidden;rotatable=0;points=[[0,0.5],[1,0.5]];portConstraint=eastwest;" vertex="1" parent="3OrEgeAZociBf4MSiKX0-2">
          <mxGeometry y="26" width="170" height="44" as="geometry" />
        </mxCell>
        <mxCell id="3OrEgeAZociBf4MSiKX0-4" value="" style="line;strokeWidth=1;fillColor=none;align=left;verticalAlign=middle;spacingTop=-1;spacingLeft=3;spacingRight=3;rotatable=0;labelPosition=right;points=[];portConstraint=eastwest;" vertex="1" parent="3OrEgeAZociBf4MSiKX0-2">
          <mxGeometry y="70" width="170" height="30" as="geometry" />
        </mxCell>
        <mxCell id="3OrEgeAZociBf4MSiKX0-6" value="Zamówienia" style="swimlane;fontStyle=1;align=center;verticalAlign=top;childLayout=stackLayout;horizontal=1;startSize=26;horizontalStack=0;resizeParent=1;resizeParentMax=0;resizeLast=0;collapsible=1;marginBottom=0;" vertex="1" parent="1">
          <mxGeometry x="280" y="48" width="160" height="92" as="geometry" />
        </mxCell>
        <mxCell id="3OrEgeAZociBf4MSiKX0-7" value="dataZłożenia:" style="text;strokeColor=none;fillColor=none;align=left;verticalAlign=top;spacingLeft=4;spacingRight=4;overflow=hidden;rotatable=0;points=[[0,0.5],[1,0.5]];portConstraint=eastwest;" vertex="1" parent="3OrEgeAZociBf4MSiKX0-6">
          <mxGeometry y="26" width="160" height="26" as="geometry" />
        </mxCell>
        <mxCell id="3OrEgeAZociBf4MSiKX0-8" value="" style="line;strokeWidth=1;fillColor=none;align=left;verticalAlign=middle;spacingTop=-1;spacingLeft=3;spacingRight=3;rotatable=0;labelPosition=right;points=[];portConstraint=eastwest;" vertex="1" parent="3OrEgeAZociBf4MSiKX0-6">
          <mxGeometry y="52" width="160" height="40" as="geometry" />
        </mxCell>
        <mxCell id="3OrEgeAZociBf4MSiKX0-24" value="Przelew" style="swimlane;fontStyle=1;align=center;verticalAlign=top;childLayout=stackLayout;horizontal=1;startSize=26;horizontalStack=0;resizeParent=1;resizeParentMax=0;resizeLast=0;collapsible=1;marginBottom=0;" vertex="1" parent="1">
          <mxGeometry x="460" y="330" width="160" height="80" as="geometry" />
        </mxCell>
        <mxCell id="3OrEgeAZociBf4MSiKX0-25" value="nazwaBanku:&#xa;nrKonta:" style="text;strokeColor=none;fillColor=none;align=left;verticalAlign=top;spacingLeft=4;spacingRight=4;overflow=hidden;rotatable=0;points=[[0,0.5],[1,0.5]];portConstraint=eastwest;" vertex="1" parent="3OrEgeAZociBf4MSiKX0-24">
          <mxGeometry y="26" width="160" height="34" as="geometry" />
        </mxCell>
        <mxCell id="3OrEgeAZociBf4MSiKX0-26" value="" style="line;strokeWidth=1;fillColor=none;align=left;verticalAlign=middle;spacingTop=-1;spacingLeft=3;spacingRight=3;rotatable=0;labelPosition=right;points=[];portConstraint=eastwest;" vertex="1" parent="3OrEgeAZociBf4MSiKX0-24">
          <mxGeometry y="60" width="160" height="20" as="geometry" />
        </mxCell>
        <mxCell id="3OrEgeAZociBf4MSiKX0-20" value="KartaPłatnicza" style="swimlane;fontStyle=1;align=center;verticalAlign=top;childLayout=stackLayout;horizontal=1;startSize=26;horizontalStack=0;resizeParent=1;resizeParentMax=0;resizeLast=0;collapsible=1;marginBottom=0;" vertex="1" parent="1">
          <mxGeometry x="270" y="330" width="170" height="124" as="geometry" />
        </mxCell>
        <mxCell id="3OrEgeAZociBf4MSiKX0-21" value="typ: =kredytowa&#xa;numer:&#xa;dataWażności:" style="text;strokeColor=none;fillColor=none;align=left;verticalAlign=top;spacingLeft=4;spacingRight=4;overflow=hidden;rotatable=0;points=[[0,0.5],[1,0.5]];portConstraint=eastwest;" vertex="1" parent="3OrEgeAZociBf4MSiKX0-20">
          <mxGeometry y="26" width="170" height="64" as="geometry" />
        </mxCell>
        <mxCell id="3OrEgeAZociBf4MSiKX0-22" value="" style="line;strokeWidth=1;fillColor=none;align=left;verticalAlign=middle;spacingTop=-1;spacingLeft=3;spacingRight=3;rotatable=0;labelPosition=right;points=[];portConstraint=eastwest;" vertex="1" parent="3OrEgeAZociBf4MSiKX0-20">
          <mxGeometry y="90" width="170" height="8" as="geometry" />
        </mxCell>
        <mxCell id="3OrEgeAZociBf4MSiKX0-23" value="obciąż0" style="text;strokeColor=none;fillColor=none;align=left;verticalAlign=top;spacingLeft=4;spacingRight=4;overflow=hidden;rotatable=0;points=[[0,0.5],[1,0.5]];portConstraint=eastwest;" vertex="1" parent="3OrEgeAZociBf4MSiKX0-20">
          <mxGeometry y="98" width="170" height="26" as="geometry" />
        </mxCell>
        <mxCell id="3OrEgeAZociBf4MSiKX0-16" value="Gotówka" style="swimlane;fontStyle=1;align=center;verticalAlign=top;childLayout=stackLayout;horizontal=1;startSize=26;horizontalStack=0;resizeParent=1;resizeParentMax=0;resizeLast=0;collapsible=1;marginBottom=0;" vertex="1" parent="1">
          <mxGeometry x="90" y="330" width="160" height="80" as="geometry" />
        </mxCell>
        <mxCell id="3OrEgeAZociBf4MSiKX0-17" value="kwotaPrzekazana" style="text;strokeColor=none;fillColor=none;align=left;verticalAlign=top;spacingLeft=4;spacingRight=4;overflow=hidden;rotatable=0;points=[[0,0.5],[1,0.5]];portConstraint=eastwest;" vertex="1" parent="3OrEgeAZociBf4MSiKX0-16">
          <mxGeometry y="26" width="160" height="26" as="geometry" />
        </mxCell>
        <mxCell id="3OrEgeAZociBf4MSiKX0-18" value="" style="line;strokeWidth=1;fillColor=none;align=left;verticalAlign=middle;spacingTop=-1;spacingLeft=3;spacingRight=3;rotatable=0;labelPosition=right;points=[];portConstraint=eastwest;" vertex="1" parent="3OrEgeAZociBf4MSiKX0-16">
          <mxGeometry y="52" width="160" height="28" as="geometry" />
        </mxCell>
        <mxCell id="3OrEgeAZociBf4MSiKX0-43" value="" style="endArrow=none;dashed=1;html=1;" edge="1" parent="1" source="3OrEgeAZociBf4MSiKX0-1" target="3OrEgeAZociBf4MSiKX0-1">
          <mxGeometry width="50" height="50" relative="1" as="geometry">
            <mxPoint x="390" y="220" as="sourcePoint" />
            <mxPoint x="440" y="170" as="targetPoint" />
          </mxGeometry>
        </mxCell>
        <mxCell id="3OrEgeAZociBf4MSiKX0-45" value="" style="endArrow=none;dashed=1;html=1;" edge="1" parent="1">
          <mxGeometry width="50" height="50" relative="1" as="geometry">
            <mxPoint x="170" y="300" as="sourcePoint" />
            <mxPoint x="560" y="300" as="targetPoint" />
          </mxGeometry>
        </mxCell>
        <mxCell id="3OrEgeAZociBf4MSiKX0-52" value="rodzaj" style="edgeLabel;html=1;align=center;verticalAlign=middle;resizable=0;points=[];" vertex="1" connectable="0" parent="3OrEgeAZociBf4MSiKX0-45">
          <mxGeometry x="-0.9138" relative="1" as="geometry">
            <mxPoint x="13" y="-10" as="offset" />
          </mxGeometry>
        </mxCell>
        <mxCell id="3OrEgeAZociBf4MSiKX0-46" value="" style="endArrow=none;dashed=1;html=1;" edge="1" parent="1">
          <mxGeometry width="50" height="50" relative="1" as="geometry">
            <mxPoint x="550" y="240" as="sourcePoint" />
            <mxPoint x="550" y="90" as="targetPoint" />
          </mxGeometry>
        </mxCell>
        <mxCell id="3OrEgeAZociBf4MSiKX0-53" value="termin" style="edgeLabel;html=1;align=center;verticalAlign=middle;resizable=0;points=[];" vertex="1" connectable="0" parent="3OrEgeAZociBf4MSiKX0-46">
          <mxGeometry x="0.7787" y="3" relative="1" as="geometry">
            <mxPoint x="-17" as="offset" />
          </mxGeometry>
        </mxCell>
        <mxCell id="3OrEgeAZociBf4MSiKX0-58" value="1" style="edgeLabel;html=1;align=center;verticalAlign=middle;resizable=0;points=[];" vertex="1" connectable="0" parent="3OrEgeAZociBf4MSiKX0-46">
          <mxGeometry x="-0.1893" y="3" relative="1" as="geometry">
            <mxPoint x="-177" y="-29" as="offset" />
          </mxGeometry>
        </mxCell>
        <mxCell id="3OrEgeAZociBf4MSiKX0-59" value="1..*" style="edgeLabel;html=1;align=center;verticalAlign=middle;resizable=0;points=[];" vertex="1" connectable="0" parent="3OrEgeAZociBf4MSiKX0-46">
          <mxGeometry x="-0.3093" y="-1" relative="1" as="geometry">
            <mxPoint x="-171" y="-18" as="offset" />
          </mxGeometry>
        </mxCell>
        <mxCell id="3OrEgeAZociBf4MSiKX0-47" value="" style="endArrow=block;endSize=16;endFill=0;html=1;entryX=0.5;entryY=1;entryDx=0;entryDy=0;exitX=0.5;exitY=0;exitDx=0;exitDy=0;" edge="1" parent="1" source="3OrEgeAZociBf4MSiKX0-16" target="3OrEgeAZociBf4MSiKX0-10">
          <mxGeometry width="160" relative="1" as="geometry">
            <mxPoint x="330" y="80" as="sourcePoint" />
            <mxPoint x="490" y="80" as="targetPoint" />
          </mxGeometry>
        </mxCell>
        <mxCell id="3OrEgeAZociBf4MSiKX0-48" value="" style="endArrow=block;endSize=16;endFill=0;html=1;entryX=0.5;entryY=1;entryDx=0;entryDy=0;exitX=0.545;exitY=-0.031;exitDx=0;exitDy=0;exitPerimeter=0;" edge="1" parent="1" source="3OrEgeAZociBf4MSiKX0-20" target="3OrEgeAZociBf4MSiKX0-10">
          <mxGeometry width="160" relative="1" as="geometry">
            <mxPoint x="460" y="530" as="sourcePoint" />
            <mxPoint x="620" y="530" as="targetPoint" />
          </mxGeometry>
        </mxCell>
        <mxCell id="3OrEgeAZociBf4MSiKX0-49" value="" style="endArrow=block;endSize=16;endFill=0;html=1;exitX=0.5;exitY=0;exitDx=0;exitDy=0;" edge="1" parent="1" source="3OrEgeAZociBf4MSiKX0-24">
          <mxGeometry width="160" relative="1" as="geometry">
            <mxPoint x="540" y="480" as="sourcePoint" />
            <mxPoint x="360" y="260" as="targetPoint" />
          </mxGeometry>
        </mxCell>
        <mxCell id="3OrEgeAZociBf4MSiKX0-50" value="" style="endArrow=block;endSize=16;endFill=0;html=1;exitX=0;exitY=0.5;exitDx=0;exitDy=0;" edge="1" parent="1" source="3OrEgeAZociBf4MSiKX0-29">
          <mxGeometry width="160" relative="1" as="geometry">
            <mxPoint x="630" y="470" as="sourcePoint" />
            <mxPoint x="450" y="230" as="targetPoint" />
          </mxGeometry>
        </mxCell>
        <mxCell id="3OrEgeAZociBf4MSiKX0-51" value="" style="endArrow=block;endSize=16;endFill=0;html=1;entryX=1;entryY=0.5;entryDx=0;entryDy=0;" edge="1" parent="1" target="3OrEgeAZociBf4MSiKX0-10">
          <mxGeometry width="160" relative="1" as="geometry">
            <mxPoint x="610" y="219" as="sourcePoint" />
            <mxPoint x="840" y="480" as="targetPoint" />
          </mxGeometry>
        </mxCell>
      </root>
    </mxGraphModel>
  </diagram>
</mxfile>
